<svg width="34" height="43" viewBox="0 0 34 43" fill="none" xmlns="http://www.w3.org/2000/svg">
<path d="M16.7377 14.1502C11.5351 9.84187 1.92468 12.8066 1 21.0766C1.41275 27.5731 7.84915 31.6792 8.81582 38.1542C10.3854 45.8126 17.1246 39.7153 21.7912 41.9082C29.0401 42.8169 30.9712 33.9177 31.1082 28.76C33.9399 17.3066 34.4628 12.5847 26.4578 11.1464C22.875 11.1079 21.2481 9.37683 16.7377 14.1502Z" fill="#E5062E" stroke="black" stroke-width="1.4"/>
<path d="M16.7378 14.1502C16.6469 14.1386 16.4725 14.2956 16.6524 14.2288C16.728 14.1773 16.7537 14.1278 16.6635 14.207C16.1393 14.5997 15.5717 14.9564 15.167 15.4824C14.929 15.7766 14.6718 16.0772 14.556 16.4436C14.521 16.551 14.5786 16.6736 14.7028 16.6718" stroke="black" stroke-width="0.533159"/>
<path d="M8.73314 12.6216C5.99389 13.3979 4.5856 18.1122 4.48355 21.14C4.38149 24.1678 6.82223 26.6021 8.83644 29.5295C10.6028 31.2228 13.4647 32.6853 15.5357 34.0597C16.9993 35.4138 18.8262 37.8412 19.6322 39.6291C19.6889 40.2702 20.5895 40.8852 20.2545 41.1505C19.2619 41.9365 15.8656 41.2303 14.6122 41.5685C12.7471 42.2666 10.196 41.9989 9.49222 40.0071C9.29303 39.6421 8.88346 35.4909 7.28045 33.9861C6.01104 31.4628 4.23252 29.2489 3.05635 26.6759C1.43534 24.5119 0.980005 21.5284 1.60995 18.9279C2.16653 16.4811 3.89925 15.1152 5.93342 13.7146C6.75954 13.2181 7.8044 12.2208 8.73314 12.6216Z" fill="#AD0F19"/>
<path d="M16.6523 14.2287C15.9921 14.2098 16.2387 13.3956 16.1724 12.9703C16.1556 12.0488 16.0776 11.102 15.6392 10.272C15.2967 9.35138 14.8484 8.46774 14.2939 7.65743C13.8733 7.07584 13.0456 6.95771 12.6824 6.32068C12.5099 5.47716 13.481 5.71004 13.9619 5.85173C14.4172 5.93792 14.9899 6.05294 15.0721 5.41144C15.1779 4.96603 15.7179 4.43514 16.1521 4.79038C16.1011 5.2525 15.818 5.71134 16.2066 6.15042C16.475 6.62053 16.1243 7.14464 16.274 7.6249C16.6532 8.0704 16.5997 8.6924 16.7681 9.22247C16.8869 10.0778 16.801 10.9662 17.1117 11.789C17.3236 12.2793 17.1964 12.7858 17.0913 13.2761C17.1003 13.7016 17.2215 14.1376 16.6523 14.2287V14.2287Z" fill="#AA4400" stroke="black" stroke-width="0.4"/>
<path d="M17.0915 13.2762C16.9515 12.1114 17.307 11.3493 17.5203 10.3257C17.8246 8.86589 18.1373 7.54229 18.958 6.28109C19.0872 6.08245 19.2071 5.82914 19.3761 5.66087C19.733 5.30544 20.5505 4.62588 20.9751 4.40065C21.2041 4.27919 21.3524 4.38008 21.5619 4.16312C21.7598 3.95828 21.9303 3.64822 22.1414 3.46373C22.3824 3.25314 22.6523 3.11304 22.9189 2.94249C23.4821 2.58222 23.9865 1.97982 24.6573 1.80103C24.7629 1.77288 24.9361 1.80102 25.0387 1.78783C25.4568 1.7341 25.9394 1.70278 26.3443 1.5767C26.8828 1.40903 28.0154 0.520984 28.4568 1.34577C28.7577 1.90783 28.029 2.27057 27.7747 2.65877C27.6229 2.89047 27.5259 3.17535 27.4079 3.42415C27.0727 4.1311 26.7821 4.78818 26.3223 5.41675C25.7941 6.13892 25.0324 6.74507 24.4886 7.49512C23.7909 8.45736 23.3367 9.68222 22.3541 10.4115C21.8894 10.7563 21.1606 10.684 20.645 10.9525C20.4884 11.0341 20.3528 11.1519 20.1976 11.2362C19.855 11.4223 19.4468 11.5097 19.1193 11.7245C18.8557 11.8974 18.6581 12.1425 18.4005 12.3249C17.9597 12.637 17.5201 12.9491 17.0915 13.2762V13.2762Z" fill="#95C11E" stroke="black" stroke-width="0.5"/>
<path d="M25.3846 16.6073C24.3508 14.8069 23.9422 13.3609 27.7534 14.3063C29.0473 14.8616 29.4209 16.0318 29.9434 17.1025C29.3141 21.1627 28.1781 21.4159 26.7092 19.1678C26.4864 17.9215 25.9658 17.21 25.3846 16.6073Z" fill="#DE8787"/>
</svg>
