<svg width="336" height="168" viewBox="0 0 336 168" fill="none" xmlns="http://www.w3.org/2000/svg">
<rect x="168.5" y="42.5" width="41" height="41" fill="#754BCD" stroke="white"/>
<rect x="0.5" y="42.5" width="41" height="41" fill="#754BCD" stroke="white"/>
<rect x="42.5" y="42.5" width="41" height="41" fill="#754BCD" stroke="white"/>
<rect x="84.5" y="84.5" width="41" height="41" fill="#754BCD" stroke="white"/>
<rect x="84.5" y="126.5" width="41" height="41" fill="#754BCD" stroke="white"/>
<rect x="84.5" y="0.5" width="41" height="41" fill="#754BCD" stroke="white"/>
<rect x="0.5" y="0.5" width="41" height="41" fill="#754BCD" stroke="white"/>
<rect x="210.5" y="42.5" width="41" height="41" fill="#754BCD" stroke="white"/>
<rect x="252.5" y="42.5" width="41" height="41" fill="#754BCD" stroke="white"/>
<rect x="252.5" y="84.5" width="41" height="41" fill="#754BCD" stroke="white"/>
<rect x="294.5" y="126.5" width="41" height="41" fill="#754BCD" stroke="white"/>
<rect x="168.5" y="84.5" width="41" height="41" fill="#754BCD" stroke="white"/>
<rect x="0.5" y="84.5" width="41" height="41" fill="#754BCD" stroke="white"/>
<rect x="168.5" y="126.5" width="41" height="41" fill="#754BCD" stroke="white"/>
<rect x="0.5" y="126.5" width="41" height="41" fill="#754BCD" stroke="white"/>
<rect x="210.5" y="126.5" width="41" height="41" fill="#754BCD" stroke="white"/>
</svg>
