<svg width="338" height="170" viewBox="0 0 338 170" fill="none" xmlns="http://www.w3.org/2000/svg">
<rect x="169" y="43" width="42" height="42" fill="white" stroke="#754BCD"/>
<rect x="1" y="43" width="42" height="42" fill="white" stroke="#754BCD"/>
<rect x="43" y="43" width="42" height="42" fill="white" stroke="#754BCD"/>
<rect x="85" y="85" width="42" height="42" fill="white" stroke="#754BCD"/>
<rect x="85" y="127" width="42" height="42" fill="white" stroke="#754BCD"/>
<rect x="85" y="1" width="42" height="42" fill="white" stroke="#754BCD"/>
<rect x="1" y="1" width="42" height="42" fill="white" stroke="#754BCD"/>
<rect x="211" y="43" width="42" height="42" fill="white" stroke="#754BCD"/>
<rect x="253" y="43" width="42" height="42" fill="white" stroke="#754BCD"/>
<rect x="253" y="85" width="42" height="42" fill="white" stroke="#754BCD"/>
<rect x="295" y="127" width="42" height="42" fill="white" stroke="#754BCD"/>
<rect x="169" y="85" width="42" height="42" fill="white" stroke="#754BCD"/>
<rect x="1" y="85" width="42" height="42" fill="white" stroke="#754BCD"/>
<rect x="169" y="127" width="42" height="42" fill="white" stroke="#754BCD"/>
<rect x="1" y="127" width="42" height="42" fill="white" stroke="#754BCD"/>
<rect x="211" y="127" width="42" height="42" fill="white" stroke="#754BCD"/>
</svg>
